<?xml version="1.0" encoding="UTF-8" standalone="no"?>
<!DOCTYPE svg PUBLIC "-//W3C//DTD SVG 1.1//EN" "http://www.w3.org/Graphics/SVG/1.1/DTD/svg11.dtd">
<!-- Created with Vectornator (http://vectornator.io/) -->
<svg height="100%" stroke-miterlimit="10" style="fill-rule:nonzero;clip-rule:evenodd;stroke-linecap:round;stroke-linejoin:round;" version="1.1" viewBox="0 0 1500 1500" width="100%" xml:space="preserve" xmlns="http://www.w3.org/2000/svg" xmlns:vectornator="http://vectornator.io" xmlns:xlink="http://www.w3.org/1999/xlink">
<defs/>
<g id="Untitled" vectornator:layerName="Untitled">
<g opacity="1">
<clipPath id="ClipPath">
<path d="M0 0L1500 0L1500 1500L0 1500L0 0Z"/>
</clipPath>
<g clip-path="url(#ClipPath)">
<path d="M954.333 603.18C964.565 603.18 971.812 610.427 971.812 630.037C971.812 659.454 964.99 703.374 964.99 741.74C964.99 773.287 969.682 800.789 986.521 813.577C977.358 818.479 969.257 820.615 962.435 820.615C945.801 820.615 936.213 807.822 936.213 791.408C936.213 772.858 937.278 745.365 938.773 720.424C939.624 705.5 941.755 686.311 941.755 668.621C941.755 637.073 940.904 624.281 917.879 620.87C930.242 610.852 943.886 603.18 954.333 603.18" fill="#231f20" fill-rule="nonzero" opacity="1" stroke="none"/>
<path d="M564.589 716.665C566.499 716.665 568.408 719.212 568.408 729.509C568.408 729.509 574.897 735.489 574.897 741.473C574.897 744.523 573.238 747.448 568.152 749.609C530.616 771.492 526.546 781.677 526.546 784.976C526.546 785.874 526.801 786.252 526.801 786.252C526.801 786.252 527.313 786.634 527.313 787.145C533.037 785.491 539.141 784.474 545.118 784.474C560.134 784.474 573.618 790.577 573.618 806.094C573.618 808.642 573.238 811.446 572.476 814.501C568.53 813.728 561.537 813.096 553.392 813.096C535.964 813.096 513.186 815.64 502.502 823.913C492.708 817.547 490.161 805.338 490.161 800.634C490.161 781.415 537.36 755.593 547.026 744.145C539.014 745.661 531.13 746.43 523.747 746.43C501.611 746.43 483.93 739.815 483.93 728.113C483.93 721.751 489.016 713.984 501.231 704.83L502.882 705.977C511.917 712.206 524.133 720.479 542.068 720.479C548.557 720.479 555.679 719.457 563.698 716.79C563.951 716.665 564.336 716.665 564.589 716.665" fill="#231f20" fill-rule="nonzero" opacity="1" stroke="none"/>
<path d="M428.935 644.144C469.382 662.817 501.095 694.911 538.018 698.262C565.194 700.732 578.881 689.571 580.32 673.673C581.435 661.37 575.328 646.077 562.368 632.236C535.964 646.897 514.118 651.116 495.41 649.41C447.462 645.059 419.057 600.4 382.391 597.071C369.57 595.907 344.841 598.75 343.999 607.986C343.867 609.528 343.201 614.318 344.062 616.204" fill="#231f20" fill-rule="nonzero" opacity="1" stroke="none"/>
<path d="M1094.71 714.745C1094.71 718.246 1091.43 720.871 1081.37 720.871C1076.78 720.871 1072.4 720.871 1068.03 721.086C1069.12 756.526 1072.62 793.271 1072.62 810.992C1072.62 818.87 1068.03 821.272 1061.9 821.272C1050.31 821.272 1033.25 811.868 1033.25 811.868C1039.37 797.434 1041.34 771.835 1041.34 745.15C1041.34 737.491 1041.12 729.621 1040.9 721.966C1034.34 722.185 1030.62 722.4 1030.62 722.4C1027.34 722.4 1020.99 717.589 1020.99 711.025C1020.99 709.491 1021.43 707.743 1022.31 705.995C1029.52 705.995 1035 705.342 1040.25 705.118C1038.93 680.185 1036.97 659.841 1036.97 655.468C1036.97 642.783 1046.59 636.657 1059.28 634.247C1063.43 631.626 1069.78 628.778 1077.22 628.778C1095.59 628.778 1103.68 637.752 1103.68 647.156C1103.68 657.439 1093.84 668.368 1077.65 668.368C1077.65 668.368 1078.75 664.652 1078.75 659.841C1078.75 655.245 1077.87 649.78 1074.37 645.403C1069.34 657.659 1067.81 678.652 1067.81 701.841C1073.06 700.964 1076.99 699.65 1080.49 698.125C1082.03 698.125 1094.71 707.962 1094.71 714.745" fill="#231f20" fill-rule="nonzero" opacity="1" stroke="none"/>
<path d="M820.684 803.989C826.336 817.654 847.678 818.096 847.678 818.096C939.788 824.007 1039.49 849.867 1121.88 830.451C1161.58 821.091 1197.31 799.972 1226.19 758.549C1249.63 774.309 1263.73 793.207 1267.8 810.987C1274.01 838.071 1257.37 862.978 1214.38 873.112C1099.48 900.179 937.279 829.493 812.101 831.061" fill="#231f20" fill-rule="nonzero" opacity="1" stroke="none"/>
<path d="M1126 775.027L1126 760.15C1113.47 762.694 1105.05 777.961 1105.05 787.94C1105.05 793.03 1107.21 796.953 1112.29 796.953C1120.72 796.953 1122.67 790.096 1126 775.027M1150.26 742.731C1150.26 751.735 1148.5 762.105 1148.5 772.291C1148.5 785.586 1151.24 798.314 1164.75 806.926C1164.75 806.926 1157.12 814.17 1146.75 814.17C1136.57 814.17 1131.09 809.47 1128.34 802.623C1123.26 809.47 1115.42 815.149 1104.27 815.149C1085.67 815.149 1076.68 802.425 1076.68 788.533C1076.68 771.109 1090.56 751.538 1117.19 751.538C1119.93 751.538 1122.67 751.735 1125.6 752.319C1124.62 742.924 1121.29 736.082 1112.29 736.082C1105.45 736.082 1101.15 741.752 1097.81 751.142C1087.63 749.785 1083.13 744.879 1083.13 739.209C1083.13 728.835 1097.61 715.522 1118.76 715.522C1145.36 715.522 1150.26 727.271 1150.26 742.731" fill="#231f20" fill-rule="nonzero" opacity="1" stroke="none"/>
<path d="M745.81 853.502C756.392 870.985 768.034 882.765 783.146 882.382C792.588 882.159 798.328 874.452 798.122 866.424C797.907 857.441 789.873 847.926 770.741 848.398C762.93 848.579 754.459 850.452 745.81 853.502M740.496 634.646C741.119 659.931 701.808 697.549 650.379 721.253C692.589 736.545 713.819 792.55 735.161 834.356C745.496 831.04 756.788 828.87 769.296 828.565C809.952 827.59 827.367 843.966 827.788 861.44C828.26 880.596 808.191 901.417 776.04 902.194C742.743 903.002 720.667 890.3 705.073 871.751C679.157 884.676 653.717 898.53 635.039 898.994C610.927 899.565 600.853 883.268 600.446 866.716C600.33 861.999 601.15 857.008 602.452 852.476C620.571 858.185 635.766 860.19 649.224 859.847C665.071 859.473 678.456 855.843 691.344 851.273C667.343 807.392 661.918 749.115 636.946 733.882C636.882 740.489 636.809 747.362 636.964 753.978C637.565 778.559 639.979 800.725 645.989 813.59C645.989 813.59 622.135 825.274 607.482 825.636C599.926 825.82 593.95 823.363 593.753 814.861C593.177 790.981 605.003 771.771 603.01 689.537C602.559 670.846 597.387 643.547 597.164 633.868C596.833 620.616 606.421 616.136 618.724 615.843C627.698 615.62 641.921 617.175 648.678 622.446C645.001 627.025 642.9 637.245 641.951 647.67C640.809 658.814 639.121 677.054 637.969 697.905C661.239 682.436 683.379 649.505 696.107 608.511C727.127 609.89 740.152 620.221 740.496 634.646" fill="#231f20" fill-rule="nonzero" opacity="1" stroke="none"/>
<path d="M878.848 716.966C878.066 714.139 877.293 711.321 876.271 708.748C863.573 720.652 856.957 750.129 857.335 765.487C857.473 771.398 858.752 775.397 861.116 775.336C867.242 775.186 881.288 759.24 880.644 732.066C880.515 727.331 879.93 722.378 878.848 716.966M891.435 699.164C895.18 698.116 899.193 697.325 902.724 697.236C908.411 697.093 912.707 698.644 912.844 704.315C913.248 721.335 913.119 735.287 913.403 747.109C914.194 779.714 917.863 794.53 941.497 803.422C941.497 803.422 925.044 817.529 911.814 817.856C892.191 818.328 888.307 794.767 885.755 767.647L884.802 767.668C871.107 797.563 859.173 802.813 848.546 803.078C830.813 803.508 822.092 784.796 821.526 761.637C820.675 726.185 838.726 680.808 870.867 680.031C883.144 679.739 888.857 691.191 891.435 699.164" fill="#231f20" fill-rule="nonzero" opacity="1" stroke="none"/>
<path d="M761.65 680.769C779.478 674.179 784.53 658.689 784.22 646.175C783.997 636.239 780.252 628.288 776.943 628.356C770.311 628.528 764.735 651.365 761.65 680.769M731.921 692.587C718.858 691.01 716.173 687.067 716.096 684.231C716.062 682.337 716.968 681.138 716.968 681.138C722.922 682.415 728.382 683.226 733.352 683.81C742.932 630.135 762.046 599.175 787.09 598.552C809.076 598.019 821.044 613.811 821.499 632.726C822.091 657.323 803.19 686.848 760.756 692.376C760.018 701.144 759.537 710.135 759.511 719.13C770.276 704.679 784.77 697.703 793.035 697.51C813.363 697.011 818.397 710.371 818.861 728.585C819.248 744.87 815.949 764.824 816.361 781.848C816.825 800.977 822.177 816.463 843.27 818.062C843.27 818.062 826.328 830.73 813.81 831.043C789.693 831.631 785.234 814.517 784.684 792.063C784.34 777.419 786.067 761.521 785.758 748.53C785.388 733.401 782.296 722.593 770.483 722.88C766.711 722.979 762.742 725.428 759.322 730.243L759.562 740.415C760.31 771.384 765.13 804.598 773.137 813.156C764.202 814.784 756.641 815.69 750.501 815.845C733.958 816.245 727.183 810.248 726.724 791.574C725.821 753.758 727.626 720.616 731.921 692.587" fill="#231f20" fill-rule="nonzero" opacity="1" stroke="none"/>
<path d="M1010.42 717.193C1016.27 717.038 1020.71 719.229 1020.89 726.751C1021.11 735.536 1017.96 760.709 1018.5 782.867C1018.9 799.165 1021.34 813.753 1028.38 819.23C1020.47 820.673 1013.78 821.464 1008.35 821.597C993.733 821.958 987.736 816.666 987.342 800.14C987.152 792.618 989.953 778.759 989.558 761.822C989.291 751.151 987.745 739.277 983.261 726.828C983.261 726.828 999.353 717.451 1010.42 717.193" fill="#231f20" fill-rule="nonzero" opacity="1" stroke="none"/>
<path d="M469.485 717.193C475.34 717.038 479.777 719.229 479.958 726.751C480.177 735.536 477.033 760.709 477.574 782.867C477.965 799.165 480.409 813.753 487.45 819.23C479.537 820.673 472.849 821.464 467.419 821.597C452.805 821.958 446.803 816.666 446.413 800.14C446.224 792.618 449.025 778.759 448.625 761.822C448.359 751.151 446.817 739.277 442.328 726.828C442.328 726.828 458.42 717.451 469.485 717.193" fill="#231f20" fill-rule="nonzero" opacity="1" stroke="none"/>
<path d="M237.186 666.748C237.186 666.748 249.175 629.173 282.472 634.654C293.33 636.441 307.497 639.595 306.983 647.495C306.893 648.818 306.354 650.325 305.371 651.803C287.959 675.567 277.836 715.892 275.837 746.628C274.31 770.1 277.549 787.949 285.892 788.481C292.036 788.886 300.74 780.409 312.28 758.909C310.785 744.489 310.895 729.505 311.775 715.904C313.679 686.496 319.173 663.273 319.173 663.273C322.47 653.135 327.978 649.973 334.332 650.381C349.475 651.382 368.735 673.565 368.735 673.565C359.984 682.677 352.894 713.95 350.858 745.116C348.519 781.105 353.017 816.872 370.363 818.006C383.542 818.861 396.582 784.014 399.284 742.766C402.573 692.084 390.186 631.75 344.062 616.204C361.398 603.652 376.259 598.682 388.345 599.472C424.76 601.844 438.423 656.064 434.797 711.57C430.882 771.711 406.814 833.376 369.47 831.615C340.499 829.738 325.208 810.66 317.551 786.359C301.556 805.153 287.178 812.581 275.338 811.816C243.737 809.763 227.28 751.164 230.446 702.455C231.301 689.503 233.416 677.307 237.186 666.748" fill="#231f20" fill-rule="nonzero" opacity="1" stroke="none"/>
<path d="M445.971 692.347C445.971 683.107 452.397 673.059 462.034 673.059C472.88 673.059 478.108 681.5 478.108 690.135C478.108 698.971 472.48 708.009 462.034 708.009C450.791 708.009 445.971 700.376 445.971 692.347" fill="#231f20" fill-rule="nonzero" opacity="1" stroke="none"/>
<path d="M983.261 689.172C983.261 679.932 989.687 669.884 999.323 669.884C1010.17 669.884 1015.39 678.325 1015.39 686.96C1015.39 695.797 1009.76 704.834 999.323 704.834C988.08 704.834 983.261 697.201 983.261 689.172" fill="#231f20" fill-rule="nonzero" opacity="1" stroke="none"/>
</g>
</g>
</g>
</svg>
